<?xml version="1.0" encoding="UTF-8"?>
<!DOCTYPE svg PUBLIC "-//W3C//DTD SVG 1.1//EN" "http://www.w3.org/Graphics/SVG/1.1/DTD/svg11.dtd">
<svg version="1.1" xmlns="http://www.w3.org/2000/svg" xmlns:xlink="http://www.w3.org/1999/xlink" x="0" y="0" width="96" height="96" viewBox="0, 0, 96, 96">
  <g id="Layer_1">
    <path d="M69.326,39.122 C65.827,39.122 62.982,36.276 62.982,32.778 C62.982,29.279 65.827,26.433 69.326,26.433 C72.824,26.433 75.67,29.279 75.67,32.778 C75.67,36.276 72.824,39.122 69.326,39.122 M56.049,89.395 C54.348,91.193 51.72,92.274 49.02,92.285 L48.975,92.285 C46.448,92.285 44.196,91.388 42.629,89.759 C40.512,87.56 39.489,84.182 39.893,80.727 C40.711,73.723 44.778,67.54 49.519,61.666 C50.158,62.597 50.852,63.561 51.581,64.572 C56.963,72.047 63.663,81.348 56.049,89.395 M31.938,22.851 C31.27,19.246 31.865,15.726 33.322,12.688 C34.587,10.05 36.906,7.529 38.81,6.128 C40.993,4.521 42.382,3.924 44.039,3.924 C45.54,3.924 48.95,5.082 51.065,7.197 C60.094,16.226 52.12,27.192 45.915,35.805 C44.949,37.146 44.037,38.413 43.213,39.635 C42.557,40.607 41.876,41.574 41.178,42.542 C36.882,36.416 33.253,29.956 31.938,22.851 M69.326,23.456 C64.187,23.456 60.005,27.638 60.005,32.778 C60.005,36.168 61.83,39.133 64.545,40.764 C63.485,42.844 62.124,44.843 61.024,46.374 C58.736,49.56 56.05,52.693 53.454,55.725 C53.043,56.203 52.633,56.685 52.223,57.165 C48.887,52.655 45.138,48.098 41.746,43.345 C42.514,42.284 43.266,41.224 43.986,40.158 C44.803,38.948 45.712,37.686 46.673,36.351 C53.078,27.459 61.049,16.392 51.743,6.554 C49.611,4.301 46.331,2.947 42.97,2.933 C42.951,2.933 42.933,2.932 42.914,2.932 C42.88,2.932 42.846,2.936 42.811,2.936 C39.899,2.737 36.948,3.457 34.216,5.115 C28.105,8.828 24.862,15.984 26.146,22.924 C27.751,31.593 32.717,39.246 38.196,46.546 C37.146,47.925 36.076,49.312 34.972,50.735 C32.998,53.281 30.956,55.913 29.015,58.569 C28.156,59.746 27.285,60.814 26.334,61.779 C25.398,60.688 24.011,59.996 22.462,59.996 C19.64,59.996 17.354,62.283 17.354,65.104 C17.354,67.925 19.64,70.212 22.462,70.212 C25.283,70.212 27.57,67.925 27.57,65.104 C27.57,64.174 27.317,63.304 26.882,62.553 C27.982,61.462 28.914,60.292 29.769,59.12 C31.703,56.475 33.74,53.848 35.71,51.308 C36.76,49.954 37.778,48.632 38.781,47.319 C39.873,48.761 40.981,50.192 42.083,51.614 C44.579,54.831 46.94,57.876 49.043,60.966 C44.16,66.99 39.939,73.344 39.087,80.632 C38.656,84.326 39.762,87.949 42.045,90.322 C43.767,92.112 46.227,93.096 48.975,93.096 C48.991,93.096 49.007,93.096 49.023,93.096 C54.604,92.997 56.129,92.546 56.129,92.546 C58.253,92.197 60.273,91.22 61.735,89.674 C70.766,80.128 60.387,69.057 54.962,61.021 C54.246,59.96 53.493,58.899 52.716,57.836 C53.167,57.307 53.618,56.778 54.068,56.251 C56.677,53.208 59.374,50.06 61.683,46.847 C62.796,45.297 64.172,43.272 65.257,41.151 C66.488,41.752 67.866,42.099 69.326,42.099 C74.466,42.099 78.646,37.917 78.646,32.778 C78.646,27.638 74.466,23.456 69.326,23.456" fill="#FEFEFE"/>
  </g>
</svg>
